<svg xmlns="http://www.w3.org/2000/svg" width="220" height="44" viewBox="0 0 220 44" role="img" aria-labelledby="title">
  <title id="title">Abargon</title>
  <rect width="44" height="44" fill="#001b22"/>
  <path d="M12 31 22 11h4l10 20h-5l-2-4H19l-2 4h-5Zm9-8h6l-3-7-3 7Z" fill="#b7ff6a"/>
  <path d="M61 31h-5l10-21h4l10 21h-5l-2-4H63l-2 4Zm4-8h6l-3-7-3 7Zm25 8c-2 0-4-.7-5.3-2.1V31h-4V10h4v7.2c1.3-1.4 3.1-2.1 5.3-2.1 4.4 0 7.6 3.3 7.6 8S94.4 31 90 31Zm-.8-3.7c2.5 0 4.3-1.8 4.3-4.2s-1.8-4.2-4.3-4.2-4.4 1.8-4.4 4.2 1.8 4.2 4.4 4.2Zm18.8 3.7c-4.8 0-8.2-3.4-8.2-8s3.4-8 8.2-8 8.2 3.4 8.2 8-3.4 8-8.2 8Zm0-3.7c2.5 0 4.1-1.8 4.1-4.3s-1.6-4.3-4.1-4.3-4.1 1.8-4.1 4.3 1.6 4.3 4.1 4.3Zm15.4 3.7h-4V15.4h4v2.1c1-1.6 2.5-2.4 4.6-2.4.5 0 1 .1 1.4.2v4c-.6-.2-1.2-.3-1.8-.3-2.7 0-4.2 1.7-4.2 4.8V31Zm15.8 0c-4.4 0-7.6-3.4-7.6-8s3.2-8 7.6-8c2.2 0 4 .8 5.3 2.2v-1.8h4V31h-4v-1.9c-1.3 1.3-3.1 1.9-5.3 1.9Zm.9-3.7c2.5 0 4.4-1.8 4.4-4.3s-1.9-4.3-4.4-4.3-4.3 1.8-4.3 4.3 1.8 4.3 4.3 4.3Zm15.2 3.7h-4V15.4h4v2c1.1-1.5 2.8-2.3 4.9-2.3 3.7 0 6.2 2.6 6.2 6.8V31h-4v-8.4c0-2.4-1.3-3.8-3.5-3.8-2.6 0-4.6 1.8-4.6 5V31Zm22.5 6.6c-3.9 0-6.8-1.4-8.5-3.8l3.1-2.2c1.1 1.4 2.5 2.1 4.4 2.1 2.9 0 4.7-1.7 4.7-4.5v-1.4c-1.3 1.4-3.1 2.1-5.3 2.1-4.4 0-7.6-3.2-7.6-7.8s3.2-7.8 7.6-7.8c2.2 0 4 .8 5.3 2.2v-1.9h4v14.7c0 5-3.3 8-8.7 8Zm.1-11.4c2.5 0 4.4-1.7 4.4-4s-1.9-4-4.4-4-4.3 1.7-4.3 4 1.8 4 4.3 4Z" fill="#001b22"/>
</svg>
